<svg xmlns="http://www.w3.org/2000/svg" width="24" height="24" fill="none" viewBox="0 0 24 24" id="scan-qr-code"><path fill="white" fill-rule="evenodd" d="M2.25 3C2.25 2.58579 2.58579 2.25 3 2.25H8.4C8.81421 2.25 9.15 2.58579 9.15 3 9.15 3.41421 8.81421 3.75 8.4 3.75H3.75V8.4C3.75 8.81421 3.41421 9.15 3 9.15 2.58579 9.15 2.25 8.81421 2.25 8.4V3zM14.85 3C14.85 2.58579 15.1858 2.25 15.6 2.25H21C21.4142 2.25 21.75 2.58579 21.75 3V8.4C21.75 8.81421 21.4142 9.15 21 9.15 20.5858 9.15 20.25 8.81421 20.25 8.4V3.75H15.6C15.1858 3.75 14.85 3.41421 14.85 3zM3 14.85C3.41421 14.85 3.75 15.1858 3.75 15.6V20.25H8.4C8.81421 20.25 9.15 20.5858 9.15 21 9.15 21.4142 8.81421 21.75 8.4 21.75H3C2.58579 21.75 2.25 21.4142 2.25 21V15.6C2.25 15.1858 2.58579 14.85 3 14.85zM21 14.85C21.4142 14.85 21.75 15.1858 21.75 15.6V17C21.75 17.4142 21.4142 17.75 21 17.75 20.5858 17.75 20.25 17.4142 20.25 17V15.6C20.25 15.1858 20.5858 14.85 21 14.85zM21 19.25C21.4142 19.25 21.75 19.5858 21.75 20V21C21.75 21.4142 21.4142 21.75 21 21.75H15.6C15.1858 21.75 14.85 21.4142 14.85 21 14.85 20.5858 15.1858 20.25 15.6 20.25H20.25V20C20.25 19.5858 20.5858 19.25 21 19.25zM1.25 12C1.25 11.5858 1.58579 11.25 2 11.25H22C22.4142 11.25 22.75 11.5858 22.75 12 22.75 12.4142 22.4142 12.75 22 12.75H2C1.58579 12.75 1.25 12.4142 1.25 12z" clip-rule="evenodd"></path></svg>